<svg width="61" height="42" viewBox="0 0 61 42" fill="none" xmlns="http://www.w3.org/2000/svg">
<path d="M23.7217 6.39507C18.0165 5.32917 6.88849 9.00867 6.88849 21.9973C6.88849 28.4364 10.7756 33.7694 19.4843 33.7694C24.4233 33.7694 30.3289 30.2049 34.6331 24.4787C38.9373 18.7524 41.6747 17.1519 44.3107 16.1193V13.8541C44.3107 13.8541 38.8382 14.2209 30.5628 24.0785C25.724 29.7737 21.353 31.4375 17.482 31.4375C13.6109 31.4375 8.7399 28.3053 8.7399 21.7144C8.7399 15.1235 12.3102 6.82741 23.7217 6.39507Z" fill="#FFFFFF"/>
<path d="M47.9229 22.294C48.7925 20.6726 48.1805 18.6546 46.5559 17.7867C44.9314 16.9188 42.9094 17.5296 42.0398 19.151C41.1702 20.7724 41.7822 22.7904 43.4067 23.6583C45.0313 24.5262 47.0532 23.9154 47.9229 22.294Z" fill="#FFFFFF"/>
<path d="M32.3625 10.1085C34.1261 9.57541 35.1227 7.71639 34.5886 5.95627C34.0545 4.19614 32.1918 3.20144 30.4283 3.73453C28.6647 4.26761 27.668 6.12663 28.2022 7.88675C28.7363 9.64687 30.5989 10.6416 32.3625 10.1085Z" fill="#FFFFFF"/>
<path d="M39.0653 35.0377C44.7705 36.1036 55.8985 32.4241 55.8985 19.4354C55.8985 12.9963 52.0113 7.66333 43.3027 7.66333C38.3637 7.66333 32.4581 11.2278 28.1539 16.9541C23.8497 22.6803 21.1123 24.2809 18.4763 25.3134V27.5786C18.4763 27.5786 23.9487 27.2118 32.2242 17.3542C37.063 11.659 41.434 9.99521 45.305 9.99521C49.1761 9.99521 54.0471 13.1262 54.0471 19.7194C54.0471 26.3126 50.4768 34.6053 39.0653 35.0377Z" fill="#FFFFFF"/>
<path d="M20.1683 23.0724C21.4712 21.772 21.4712 19.6636 20.1683 18.3631C18.8653 17.0627 16.7528 17.0627 15.4498 18.3631C14.1468 19.6636 14.1468 21.772 15.4498 23.0724C16.7528 24.3728 18.8653 24.3728 20.1683 23.0724Z" fill="#FFFFFF"/>
<path d="M33.1487 37.334C34.7162 36.3671 35.2014 34.3151 34.2326 32.7507C33.2638 31.1863 31.2078 30.702 29.6403 31.6689C28.0729 32.6359 27.5876 34.6879 28.5564 36.2523C29.5253 37.8166 31.5813 38.3009 33.1487 37.334Z" fill="#FFFFFF"/>
</svg>
